<svg width="39.000000" height="26.925049" viewBox="0 0 39 26.925" fill="none" xmlns="http://www.w3.org/2000/svg" xmlns:xlink="http://www.w3.org/1999/xlink">
	<desc>
			Created with Pixso.
	</desc>
	<defs/>
	<path id="“" d="M9.74995 1.05005C8.04995 5.25006 7.02495 8.82504 6.67495 11.775C9.27495 11.675 11.375 12.3001 12.975 13.6501C14.625 14.95 15.45 16.675 15.45 18.8251C15.45 21.175 14.7 23.125 13.2 24.6751C11.75 26.1751 9.92495 26.925 7.72495 26.925C5.62495 26.925 3.79995 26.1501 2.24995 24.6001C0.749952 23.05 -4.76837e-05 21.125 -4.76837e-05 18.8251C-4.76837e-05 17.675 0.174952 16.5001 0.524952 15.3001C0.874952 14.0501 1.59995 12.25 2.69995 9.90005C3.84995 7.55005 5.62495 4.25006 8.02495 6.10352e-05L9.74995 1.05005ZM33.3 1.05005C31.6 5.25006 30.575 8.82504 30.225 11.775C32.825 11.675 34.925 12.3001 36.525 13.6501C38.175 14.95 39 16.675 39 18.8251C39 21.175 38.25 23.125 36.75 24.6751C35.3 26.1751 33.475 26.925 31.275 26.925C29.175 26.925 27.35 26.1501 25.8 24.6001C24.3 23.05 23.55 21.125 23.55 18.8251C23.55 17.675 23.725 16.5001 24.075 15.3001C24.425 14.0501 25.15 12.25 26.25 9.90005C27.4 7.55005 29.175 4.25006 31.575 6.10352e-05L33.3 1.05005Z" fill="#C9AC8C" fill-opacity="1.000000" fill-rule="evenodd"/>
</svg>
