<svg width="24.000000" height="24.000000" viewBox="0 0 24 24" fill="none" xmlns="http://www.w3.org/2000/svg" xmlns:xlink="http://www.w3.org/1999/xlink">
	<desc>
			Created with Pixso.
	</desc>
	<defs>
		<clipPath id="clip1_403">
			<rect id="search" width="24.000000" height="24.000000" fill="white" fill-opacity="0"/>
		</clipPath>
	</defs>
	<rect id="search" width="24.000000" height="24.000000" fill="#FFFFFF" fill-opacity="0"/>
	<g clip-path="url(#clip1_403)">
		<path id="Vector" d="M10.1487 18.0283C12.0237 18.0283 13.7472 17.3834 15.1224 16.3139L19.5873 20.7786L21.0234 19.3425L16.5586 14.8779C17.6291 13.5017 18.274 11.7782 18.274 9.90343C18.274 5.42358 14.6288 1.77856 10.1487 1.77856C5.66864 1.77856 2.02344 5.42358 2.02344 9.90343C2.02344 14.3833 5.66864 18.0283 10.1487 18.0283ZM10.1487 3.80978C13.5096 3.80978 16.2427 6.54279 16.2427 9.90343C16.2427 13.2641 13.5096 15.9971 10.1487 15.9971C6.7879 15.9971 4.05475 13.2641 4.05475 9.90343C4.05475 6.54279 6.7879 3.80978 10.1487 3.80978Z" fill="#3C2710" fill-opacity="1.000000" fill-rule="nonzero"/>
		<path id="Vector" d="M11.412 8.58603C11.791 8.96602 11.9999 9.46802 11.9999 10L13.9999 10C13.9999 8.93503 13.584 7.93103 12.826 7.17203C11.312 5.66002 8.68695 5.66002 7.17395 7.17203L8.58594 8.58803C9.34595 7.83003 10.6559 7.83203 11.412 8.58603Z" fill="#3C2710" fill-opacity="1.000000" fill-rule="nonzero"/>
	</g>
</svg>
